<svg width="36" height="35" viewBox="0 0 36 35" fill="none" xmlns="http://www.w3.org/2000/svg">
<path d="M33.7773 15.313C33.5767 15.0349 33.3129 14.8085 33.0075 14.6526C32.7022 14.4966 32.3641 14.4156 32.0213 14.4161H29.8601V12.2549C29.8601 11.6817 29.6324 11.132 29.2271 10.7267C28.8218 10.3214 28.2721 10.0937 27.6989 10.0937H18.3342L14.5886 7.28415C14.2139 7.00479 13.7593 6.85326 13.2919 6.85191H6.08709C5.51391 6.85191 4.9642 7.07961 4.5589 7.48491C4.1536 7.89021 3.9259 8.43992 3.9259 9.0131V28.4638C3.9259 28.7503 4.03975 29.0252 4.2424 29.2279C4.44505 29.4305 4.7199 29.5443 5.0065 29.5443H29.1983C29.4251 29.5444 29.6461 29.473 29.8301 29.3404C30.0141 29.2078 30.1517 29.0207 30.2235 28.8055L34.0717 17.2607C34.1799 16.9359 34.2097 16.59 34.1585 16.2515C34.1073 15.9129 33.9767 15.5913 33.7773 15.313ZM13.2919 9.0131L17.3252 12.0388C17.5123 12.179 17.7398 12.2549 17.9736 12.2549H27.6989V14.4161H10.1082C9.65463 14.416 9.2125 14.5587 8.8445 14.8239C8.4765 15.0892 8.20127 15.4634 8.05782 15.8938L6.08709 21.8046V9.0131H13.2919ZM28.4202 27.3832H6.50582L10.1082 16.5772H32.0213L28.4202 27.3832Z" fill="#CB6296"/>
</svg>
