<svg width="73" height="73" viewBox="0 0 73 73" fill="none" xmlns="http://www.w3.org/2000/svg">
<path d="M69.8633 31.5497C69.4399 30.9627 68.8829 30.4848 68.2383 30.1556C67.5937 29.8263 66.88 29.6552 66.1562 29.6562H61.5938V25.0938C61.5938 23.8837 61.1131 22.7232 60.2574 21.8676C59.4018 21.0119 58.2413 20.5312 57.0312 20.5312H37.2614L29.354 14.6C28.5629 14.0102 27.6032 13.6904 26.6165 13.6875H11.4062C10.1962 13.6875 9.03571 14.1682 8.18008 15.0238C7.32444 15.8795 6.84375 17.0399 6.84375 18.25V59.3125C6.84375 59.9175 7.0841 60.4978 7.51191 60.9256C7.93973 61.3534 8.51997 61.5938 9.125 61.5938H60.1965C60.6753 61.5938 61.142 61.4432 61.5304 61.1632C61.9189 60.8833 62.2094 60.4882 62.3608 60.0339L70.4849 35.6616C70.7134 34.9759 70.7762 34.2457 70.6681 33.531C70.5601 32.8163 70.2843 32.1373 69.8633 31.5497ZM26.6165 18.25L35.1312 24.6375C35.5261 24.9337 36.0064 25.0938 36.5 25.0938H57.0312V29.6562H19.8954C18.9377 29.6562 18.0043 29.9574 17.2275 30.5173C16.4506 31.0772 15.8695 31.8674 15.5667 32.7759L11.4062 45.2543V18.25H26.6165ZM58.554 57.0312H12.2902L19.8954 34.2188H66.1562L58.554 57.0312Z" fill="#CDEBD0"/>
</svg>
