<svg width="88" height="88" viewBox="0 0 88 88" fill="none" xmlns="http://www.w3.org/2000/svg">
<path d="M48.125 61.875C48.125 62.6908 47.8831 63.4884 47.4298 64.1667C46.9766 64.8451 46.3323 65.3738 45.5786 65.686C44.8248 65.9982 43.9954 66.0799 43.1953 65.9207C42.3951 65.7616 41.6601 65.3687 41.0832 64.7918C40.5063 64.2149 40.1134 63.4799 39.9543 62.6797C39.7951 61.8796 39.8768 61.0502 40.189 60.2964C40.5012 59.5427 41.0299 58.8984 41.7083 58.4452C42.3866 57.9919 43.1842 57.75 44 57.75C45.094 57.75 46.1432 58.1846 46.9168 58.9582C47.6904 59.7318 48.125 60.781 48.125 61.875ZM44 24.75C36.4169 24.75 30.25 30.3016 30.25 37.125V38.5C30.25 39.2293 30.5397 39.9288 31.0555 40.4445C31.5712 40.9603 32.2707 41.25 33 41.25C33.7294 41.25 34.4288 40.9603 34.9446 40.4445C35.4603 39.9288 35.75 39.2293 35.75 38.5V37.125C35.75 33.3438 39.4522 30.25 44 30.25C48.5478 30.25 52.25 33.3438 52.25 37.125C52.25 40.9062 48.5478 44 44 44C43.2707 44 42.5712 44.2897 42.0555 44.8055C41.5397 45.3212 41.25 46.0207 41.25 46.75V49.5C41.25 50.2293 41.5397 50.9288 42.0555 51.4445C42.5712 51.9603 43.2707 52.25 44 52.25C44.7294 52.25 45.4288 51.9603 45.9446 51.4445C46.4603 50.9288 46.75 50.2293 46.75 49.5V49.2525C53.02 48.1009 57.75 43.0994 57.75 37.125C57.75 30.3016 51.5831 24.75 44 24.75ZM79.75 44C79.75 51.0707 77.6533 57.9826 73.7251 63.8616C69.7968 69.7407 64.2134 74.3229 57.6809 77.0287C51.1485 79.7345 43.9604 80.4425 37.0255 79.0631C30.0907 77.6836 23.7207 74.2788 18.7209 69.2791C13.7212 64.2793 10.3164 57.9093 8.93694 50.9745C7.55752 44.0397 8.26549 36.8515 10.9713 30.3191C13.6772 23.7866 18.2593 18.2032 24.1384 14.275C30.0174 10.3467 36.9293 8.25 44 8.25C53.4784 8.26001 62.5658 12.0297 69.268 18.732C75.9703 25.4342 79.74 34.5216 79.75 44ZM74.25 44C74.25 38.0171 72.4759 32.1686 69.152 27.194C65.8281 22.2194 61.1037 18.3422 55.5762 16.0526C50.0487 13.7631 43.9665 13.164 38.0985 14.3312C32.2306 15.4984 26.8406 18.3795 22.61 22.61C18.3795 26.8406 15.4985 32.2306 14.3313 38.0985C13.1641 43.9664 13.7631 50.0487 16.0527 55.5762C18.3422 61.1036 22.2194 65.828 27.194 69.152C32.1686 72.4759 38.0171 74.25 44 74.25C52.02 74.2409 59.7089 71.0509 65.3799 65.3799C71.051 59.7089 74.2409 52.02 74.25 44Z" fill="#CDEBD0"/>
</svg>
