<svg width="43" height="42" viewBox="0 0 43 42" fill="none" xmlns="http://www.w3.org/2000/svg">
<path d="M23.375 29.3619C23.375 29.7483 23.2604 30.1261 23.0457 30.4474C22.831 30.7687 22.5259 31.0192 22.1688 31.1671C21.8118 31.315 21.4189 31.3537 21.0399 31.2783C20.6609 31.2029 20.3127 31.0168 20.0394 30.7435C19.7662 30.4702 19.5801 30.1221 19.5047 29.7431C19.4293 29.364 19.468 28.9712 19.6159 28.6141C19.7638 28.2571 20.0142 27.9519 20.3355 27.7372C20.6569 27.5225 21.0346 27.4079 21.4211 27.4079C21.9393 27.4079 22.4363 27.6138 22.8027 27.9802C23.1692 28.3467 23.375 28.8436 23.375 29.3619ZM21.4211 11.7763C17.8291 11.7763 14.9079 14.406 14.9079 17.6382V18.2895C14.9079 18.635 15.0452 18.9663 15.2895 19.2106C15.5338 19.4549 15.8651 19.5921 16.2106 19.5921C16.556 19.5921 16.8874 19.4549 17.1317 19.2106C17.376 18.9663 17.5132 18.635 17.5132 18.2895V17.6382C17.5132 15.8471 19.2669 14.3816 21.4211 14.3816C23.5753 14.3816 25.329 15.8471 25.329 17.6382C25.329 19.4293 23.5753 20.8948 21.4211 20.8948C21.0756 20.8948 20.7443 21.032 20.5 21.2763C20.2557 21.5206 20.1185 21.8519 20.1185 22.1974V23.5C20.1185 23.8455 20.2557 24.1768 20.5 24.4211C20.7443 24.6654 21.0756 24.8027 21.4211 24.8027C21.7666 24.8027 22.0979 24.6654 22.3422 24.4211C22.5865 24.1768 22.7237 23.8455 22.7237 23.5V23.3828C25.6937 22.8373 27.9343 20.4681 27.9343 17.6382C27.9343 14.406 25.0131 11.7763 21.4211 11.7763ZM38.3553 20.8948C38.3553 24.244 37.3621 27.5181 35.5014 30.3029C33.6406 33.0877 30.9959 35.2582 27.9015 36.5399C24.8072 37.8216 21.4023 38.157 18.1174 37.5036C14.8325 36.8502 11.8151 35.2373 9.4468 32.8691C7.07851 30.5008 5.46568 27.4834 4.81227 24.1985C4.15886 20.9135 4.49421 17.5086 5.77593 14.4143C7.05764 11.32 9.22814 8.67523 12.013 6.81448C14.7978 4.95372 18.0718 3.96055 21.4211 3.96055C25.9109 3.96529 30.2154 5.75095 33.3902 8.9257C36.5649 12.1005 38.3506 16.405 38.3553 20.8948ZM35.75 20.8948C35.75 18.0608 34.9097 15.2904 33.3352 12.934C31.7607 10.5776 29.5228 8.74106 26.9045 7.65654C24.2863 6.57201 21.4052 6.28825 18.6257 6.84114C15.8461 7.39402 13.2929 8.75872 11.289 10.7627C9.28506 12.7666 7.92036 15.3198 7.36747 18.0993C6.81459 20.8789 7.09835 23.7599 8.18287 26.3782C9.2674 28.9965 11.104 31.2344 13.4604 32.8088C15.8167 34.3833 18.5871 35.2237 21.4211 35.2237C25.22 35.2194 28.8622 33.7084 31.5484 31.0221C34.2347 28.3358 35.7457 24.6937 35.75 20.8948Z" fill="#CB6296"/>
</svg>
